<?xml version="1.0" encoding="UTF-8"?>
<svg id="Layer_2" data-name="Layer 2" xmlns="http://www.w3.org/2000/svg" viewBox="0 0 483.31 87.31">
  <defs>
    <style>
      .cls-1 {
        fill: #111;
      }
    </style>
  </defs>
  <g id="Layer_2-2" data-name="Layer 2">
    <polygon class="cls-1" points="320.62 12.61 320.62 1.15 297.08 1.15 285.62 1.15 285.62 12.61 285.62 54.7 285.62 68.33 285.62 75.63 285.62 87.1 297.08 87.1 320.62 87.1 320.62 75.63 297.08 75.63 297.08 61.58 312.71 52.38 312.71 38.74 297.08 47.94 297.08 12.61 320.62 12.61"/>
    <polygon class="cls-1" points="241.95 12.51 241.95 1.04 218.42 1.04 206.95 1.04 206.95 12.51 206.95 54.59 206.95 68.23 206.95 75.53 206.95 86.99 218.42 86.99 241.95 86.99 241.95 75.53 218.42 75.53 218.42 61.47 234.04 52.27 234.04 38.64 218.42 47.84 218.42 12.51 241.95 12.51"/>
    <polygon class="cls-1" points="424.77 75.53 424.77 1.04 413.31 1.04 413.31 75.53 413.31 86.99 424.77 86.99 448.31 86.99 448.31 75.53 424.77 75.53"/>
    <polyline class="cls-1" points="120.44 75.53 120.44 1.04 108.97 1.04 108.97 75.53 108.97 86.99 120.44 86.99"/>
    <polyline class="cls-1" points="401.79 75.63 401.79 1.15 390.32 1.15 390.32 75.63 390.32 87.1 401.79 87.1"/>
    <path class="cls-1" d="M35,1.04H0v11.47h0v74.49h11.47v-14.81l31.57-18.27V1.04h-8.04ZM31.57,47.59l-20.11,11.63V12.51h20.11v35.08Z"/>
    <g>
      <polygon class="cls-1" points="134.63 38.96 134.63 52.59 193.55 87.31 193.55 73.69 134.63 38.96"/>
      <polygon class="cls-1" points="182.08 .72 164.09 13.54 146.09 .72 140.36 .72 134.63 .72 134.63 25.35 146.09 32.1 146.09 15.46 164.09 28.08 182.08 14.73 182.08 53.32 193.55 60.08 193.55 .72 182.08 .72"/>
      <circle class="cls-1" cx="142.46" cy="79.48" r="7.84"/>
    </g>
    <path class="cls-1" d="M88.51,0h-35v85.95h11.47v-14.81l7.2-4.16,11.09,18.97h13.28l-14.45-24.71,14.45-8.36V0h-8.04ZM85.08,46.55l-20.11,11.63V11.47h20.11v35.08Z"/>
    <polyline class="cls-1" points="347.93 84.19 348.73 87.09 353.57 87.09 358.42 87.09 359.22 84.19 359.52 83.1 361.47 76.04 382.14 1.18 370.24 1.18 353.57 61.56 336.91 1.18 325 1.16 345.68 76.04 347.63 83.1"/>
    <polygon class="cls-1" points="483.31 12.4 483.31 .93 459.77 .93 448.31 .93 448.31 12.4 448.31 28.02 448.31 37.4 448.31 41.65 471.84 55.65 471.84 75.51 459.77 75.51 459.77 75.51 459.77 86.98 459.77 86.98 483.31 86.98 483.31 75.51 483.31 75.51 483.31 62.47 483.31 62.47 483.31 48.84 459.77 34.84 459.77 12.4 483.31 12.4"/>
  </g>
</svg>